<?xml version="1.0" encoding="UTF-8"?>
<!DOCTYPE svg PUBLIC "-//W3C//DTD SVG 1.1//EN" "http://www.w3.org/Graphics/SVG/1.1/DTD/svg11.dtd">
<svg xmlns="http://www.w3.org/2000/svg" version="1.1" width="216px" height="67px" style="shape-rendering:geometricPrecision; text-rendering:geometricPrecision; image-rendering:optimizeQuality; fill-rule:evenodd; clip-rule:evenodd" xmlns:xlink="http://www.w3.org/1999/xlink">
<g><path style="opacity:0.955" fill="#fcfbfb" d="M 81.5,-0.5 C 98.8333,-0.5 116.167,-0.5 133.5,-0.5C 152.053,1.10942 170.387,4.60942 188.5,10C 199.24,13.3565 208.24,19.1898 215.5,27.5C 215.5,31.1667 215.5,34.8333 215.5,38.5C 208.24,46.8102 199.24,52.6435 188.5,56C 170.387,61.3906 152.053,64.8906 133.5,66.5C 116.167,66.5 98.8333,66.5 81.5,66.5C 62.9466,64.8906 44.6133,61.3906 26.5,56C 15.7597,52.6435 6.75974,46.8102 -0.5,38.5C -0.5,34.8333 -0.5,31.1667 -0.5,27.5C 6.75974,19.1898 15.7597,13.3565 26.5,10C 44.6133,4.60942 62.9466,1.10942 81.5,-0.5 Z"/></g>
<g><path style="opacity:1" fill="#0f2761" d="M 146.5,6.5 C 141.5,7.16667 136.5,7.83333 131.5,8.5C 118.055,9.14115 106.222,13.8078 96,22.5C 89.6362,31.0289 90.1362,39.0289 97.5,46.5C 97.8333,46.5 98.1667,46.5 98.5,46.5C 102.084,50.304 106.417,53.1373 111.5,55C 118.266,57.628 125.266,59.2947 132.5,60C 98.7828,64.3927 65.4495,62.3927 32.5,54C 25.9223,51.9184 19.589,49.2517 13.5,46C 1.04762,38.5202 0.380955,30.1868 11.5,21C 17.8808,17.426 24.5475,14.426 31.5,12C 69.4455,2.81685 107.779,0.983513 146.5,6.5 Z"/></g>
<g><path style="opacity:1" fill="#556293" d="M 84.5,6.5 C 96.5046,6.33346 108.505,6.50013 120.5,7C 109.065,9.13389 99.2319,14.3006 91,22.5C 87.3604,30.4168 84.0271,38.4168 81,46.5C 70.7857,53.0523 59.619,55.219 47.5,53C 36.2094,51.1254 25.5428,47.4588 15.5,42C 7.52148,36.0989 7.52148,30.0989 15.5,24C 27.9794,16.951 41.3127,12.2844 55.5,10C 65.2735,8.45652 74.9401,7.28985 84.5,6.5 Z"/></g>
<g><path style="opacity:1" fill="#9ba7be" d="M 146.5,6.5 C 148.854,6.83802 151.187,7.33802 153.5,8C 146.174,8.49966 138.841,8.66632 131.5,8.5C 136.5,7.83333 141.5,7.16667 146.5,6.5 Z"/></g>
<g><path style="opacity:1" fill="#f3f4f7" d="M 58.5,17.5 C 60.3079,18.9179 60.9746,20.9179 60.5,23.5C 61.8333,23.5 63.1667,23.5 64.5,23.5C 64.5,24.5 64.5,25.5 64.5,26.5C 62.8333,26.5 61.1667,26.5 59.5,26.5C 58.8857,30.1352 58.5524,33.8019 58.5,37.5C 63.6229,37.8992 63.7896,38.8992 59,40.5C 57.8926,40.4148 56.8926,40.0814 56,39.5C 55.2334,35.4425 55.4001,31.4425 56.5,27.5C 55.689,26.7836 55.0223,25.9503 54.5,25C 55.9087,22.4708 57.242,19.9708 58.5,17.5 Z"/></g>
<g><path style="opacity:1" fill="#d23034" d="M 196.5,18.5 C 198.308,19.9179 198.975,21.9179 198.5,24.5C 199.833,24.5 201.167,24.5 202.5,24.5C 202.5,25.5 202.5,26.5 202.5,27.5C 200.833,27.5 199.167,27.5 197.5,27.5C 197.384,30.8599 197.051,34.1933 196.5,37.5C 197.833,37.5 199.167,37.5 200.5,37.5C 199.444,41.6852 197.277,42.3519 194,39.5C 193.283,35.9551 193.45,32.4551 194.5,29C 191.673,26.8428 191.84,25.0095 195,23.5C 195.352,21.7525 195.852,20.0858 196.5,18.5 Z"/></g>
<g><path style="opacity:1" fill="#d33336" d="M 152.5,18.5 C 152.5,20.5 152.5,22.5 152.5,24.5C 153.833,24.5 155.167,24.5 156.5,24.5C 156.5,25.5 156.5,26.5 156.5,27.5C 154.833,27.5 153.167,27.5 151.5,27.5C 151.5,30.8333 151.5,34.1667 151.5,37.5C 152.873,37.3433 154.207,37.51 155.5,38C 153.436,40.5751 150.936,41.0751 148,39.5C 147.337,36.1308 147.504,32.7975 148.5,29.5C 147.453,27.9436 146.786,26.2769 146.5,24.5C 147.5,24.5 148.5,24.5 149.5,24.5C 149.34,22.8008 149.506,21.1341 150,19.5C 150.671,18.7476 151.504,18.4142 152.5,18.5 Z"/></g>
<g><path style="opacity:1" fill="#e89094" d="M 156.5,24.5 C 155.167,24.5 153.833,24.5 152.5,24.5C 152.5,22.5 152.5,20.5 152.5,18.5C 153.518,19.2921 153.851,20.9588 153.5,23.5C 154.791,23.2627 155.791,23.596 156.5,24.5 Z"/></g>
<g><path style="opacity:1" fill="#eff0f5" d="M 22.5,23.5 C 26.2568,23.0708 29.7568,23.7375 33,25.5C 33.0952,30.5356 32.5952,35.5356 31.5,40.5C 29.8762,40.6399 28.7096,39.9733 28,38.5C 21,42.5 18,40.5 19,32.5C 21.8966,29.7691 25.3966,28.7691 29.5,29.5C 29.5,28.5 29.5,27.5 29.5,26.5C 26.7531,26.8134 24.0865,26.48 21.5,25.5C 21.8627,24.8165 22.1961,24.1499 22.5,23.5 Z"/></g>
<g><path style="opacity:1" fill="#edeef3" d="M 37.5,23.5 C 38.5,23.5 39.5,23.5 40.5,23.5C 40.3343,27.8461 40.501,32.1794 41,36.5C 42.9376,37.8602 44.6043,37.5268 46,35.5C 46.8279,31.534 47.3279,27.534 47.5,23.5C 48.8333,23.5 50.1667,23.5 51.5,23.5C 50.5878,29.1313 49.9211,34.798 49.5,40.5C 45.6756,40.3261 41.8423,39.9928 38,39.5C 36.2168,34.2454 36.0502,28.912 37.5,23.5 Z"/></g>
<g><path style="opacity:1" fill="#f0f1f5" d="M 70.5,23.5 C 81.1904,23.2008 84.0237,27.8674 79,37.5C 71.8858,42.7151 67.3858,41.0484 65.5,32.5C 65.9039,28.7712 67.5706,25.7712 70.5,23.5 Z"/></g>
<g><path style="opacity:1" fill="#d23033" d="M 98.5,46.5 C 98.1667,46.5 97.8333,46.5 97.5,46.5C 98.4959,39.1992 99.1625,31.8658 99.5,24.5C 101.144,24.2865 102.644,24.6198 104,25.5C 110.017,22.1633 113.183,23.9967 113.5,31C 113.252,38.9315 109.419,41.7648 102,39.5C 102.107,42.5921 100.941,44.9255 98.5,46.5 Z"/></g>
<g><path style="opacity:1" fill="#d23134" d="M 123.5,23.5 C 125.429,23.2308 127.095,23.7308 128.5,25C 126.225,26.858 123.725,28.358 121,29.5C 120.281,33.1454 119.781,36.8121 119.5,40.5C 118.5,40.5 117.5,40.5 116.5,40.5C 117.194,35.1951 117.528,29.8617 117.5,24.5C 119.144,24.2865 120.644,24.6198 122,25.5C 122.717,24.9558 123.217,24.2891 123.5,23.5 Z"/></g>
<g><path style="opacity:1" fill="#d23134" d="M 134.5,23.5 C 142.877,23.394 145.71,27.394 143,35.5C 140.565,40.2238 136.731,41.7238 131.5,40C 127.049,33.5421 128.049,28.0421 134.5,23.5 Z"/></g>
<g><path style="opacity:1" fill="#d33637" d="M 164.5,23.5 C 170.983,23.6512 173.983,26.9845 173.5,33.5C 169.5,33.5 165.5,33.5 161.5,33.5C 161.33,34.8221 161.663,35.9887 162.5,37C 164.769,37.7581 166.936,37.5914 169,36.5C 170.617,37.5358 170.784,38.7025 169.5,40C 160.146,42.4866 156.646,38.9866 159,29.5C 160.36,26.9774 162.193,24.9774 164.5,23.5 Z"/></g>
<g><path style="opacity:1" fill="#d4393b" d="M 181.5,23.5 C 184.798,23.0162 187.464,24.0162 189.5,26.5C 188.141,28.6357 186.307,28.9691 184,27.5C 182.289,27.4393 180.956,28.1059 180,29.5C 177.751,36.3318 179.918,38.6651 186.5,36.5C 187.308,36.8076 187.975,37.3076 188.5,38C 181.87,43.3562 177.536,41.8562 175.5,33.5C 175.998,29.1561 177.998,25.8228 181.5,23.5 Z"/></g>
<g><path style="opacity:1" fill="#5b6796" d="M 71.5,26.5 C 73.1992,26.3398 74.8659,26.5065 76.5,27C 78.4362,31.5784 77.2695,35.0784 73,37.5C 70.4723,36.8031 69.3056,35.1364 69.5,32.5C 69.6113,30.2857 70.278,28.2857 71.5,26.5 Z"/></g>
<g><path style="opacity:1" fill="#fcf0f0" d="M 105.5,26.5 C 108.822,26.4887 110.489,28.1554 110.5,31.5C 110.46,37.0547 107.96,38.7214 103,36.5C 101.98,32.5796 102.813,29.2463 105.5,26.5 Z"/></g>
<g><path style="opacity:1" fill="#fdf7f7" d="M 134.5,27.5 C 140.067,26.7532 141.9,29.0866 140,34.5C 138.419,37.5534 136.086,38.22 133,36.5C 132.068,33.1769 132.568,30.1769 134.5,27.5 Z"/></g>
<g><path style="opacity:1" fill="#fce9ea" d="M 164.5,26.5 C 167.95,25.7564 169.616,27.0897 169.5,30.5C 167.076,30.8076 164.743,30.4742 162.5,29.5C 163.193,28.4822 163.859,27.4822 164.5,26.5 Z"/></g>
<g><path style="opacity:1" fill="#5f6b99" d="M 22.5,32.5 C 24.5,32.5 26.5,32.5 28.5,32.5C 28.3068,37.0139 26.1401,38.3473 22,36.5C 21.4209,35.0715 21.5876,33.7382 22.5,32.5 Z"/></g>
</svg>
