<?xml version="1.0" encoding="UTF-8"?>
<!-- Generator: Adobe Illustrator 23.0.0, SVG Export Plug-In . SVG Version: 6.00 Build 0)  -->
<svg version="1.1" id="Layer_1" xmlns="http://www.w3.org/2000/svg" xmlns:xlink="http://www.w3.org/1999/xlink" x="0px" y="0px" width="85px" height="85px" viewBox="0 0 85 85" style="enable-background:new 0 0 85 85;" xml:space="preserve">
<style type="text/css">
	.st0{fill:#00B8AB;}
	.st1{fill:#ED1E79;}
</style>
<g>
	<path class="st0" d="M32.3,36.8c-4.1,0-7.5,3.4-7.5,7.5c0,1.9,0.7,3.6,1.8,4.8c0.5,0.6,1.2,1.2,1.9,1.6c1.1,0.6,2.4,1,3.7,1   c4.1,0,7.5-3.4,7.5-7.5S36.4,36.8,32.3,36.8z M32.3,49.5c-0.6,0-1.2-0.1-1.8-0.3c-0.7-0.3-1.4-0.7-1.9-1.3   c-0.9-0.9-1.5-2.2-1.5-3.6c0-2.9,2.3-5.2,5.2-5.2s5.2,2.3,5.2,5.2S35.1,49.5,32.3,49.5z"/>
	<path class="st1" d="M47.7,36.8c-4.1,0-7.5,3.4-7.5,7.5s3.4,7.5,7.5,7.5s7.5-3.4,7.5-7.5S51.8,36.8,47.7,36.8z M47.7,49.5   c-2.9,0-5.2-2.3-5.2-5.2s2.3-5.2,5.2-5.2c2.9,0,5.2,2.3,5.2,5.2S50.6,49.5,47.7,49.5z"/>
	<path class="st0" d="M63.3,36.8c-1.5,0-2.9,0.4-4.1,1.2v3c1-1.2,2.4-1.9,4.1-1.9c2.9,0,5.2,2.3,5.2,5.2s-2.3,5.2-5.2,5.2   s-5.2-2.3-5.2-5.2l0,0V32.6h-2.3v11.6l0,0c0,4.1,3.4,7.5,7.5,7.5c4.1,0,7.5-3.4,7.5-7.5S67.4,36.8,63.3,36.8z"/>
	<path class="st0" d="M25.7,49.9c-0.2-0.3-0.4-0.5-0.6-0.8c-0.6,0.3-1.3,0.4-2,0.4c-0.6,0-1.2-0.1-1.8-0.3c-0.7-0.3-1.4-0.7-1.9-1.3   c-0.9-0.9-1.5-2.2-1.5-3.6l0,0l0,0v-6.7v-4.9h-2.3v11.6c0,1.9,0.7,3.6,1.8,4.8c0.5,0.6,1.2,1.2,1.9,1.6c1.1,0.6,2.4,1,3.7,1   c1.3,0,2.5-0.4,3.6-0.9C26.3,50.5,26,50.2,25.7,49.9z"/>
	<rect x="16.9" y="36.8" class="st0" width="7.8" height="2.3"/>
	<g>
		<path class="st1" d="M71.6,16c-1.5,0-2.8-1.2-2.8-2.8s1.2-2.8,2.8-2.8c1.5,0,2.8,1.2,2.8,2.8S73.1,16,71.6,16z M71.6,12.1    c-0.6,0-1.1,0.5-1.1,1.1c0,0.7,0.5,1.1,1.1,1.1s1.1-0.5,1.1-1.1C72.7,12.5,72.2,12.1,71.6,12.1z"/>
	</g>
	<path class="st0" d="M77.4,18.4l-1.9,1.3c4.5,6.5,7.1,14.3,7.1,22.8c0,22.2-18.1,40.3-40.3,40.3S2.1,64.7,2.1,42.5   S20.2,2.2,42.4,2.2c8,0,15.5,2.4,21.8,6.4l1.2-1.9C58.7,2.4,50.7,0,42.4,0c-11.3,0-22,4.4-30.1,12.4S-0.1,31.2-0.1,42.5   s4.4,22,12.4,30.1S31.1,85,42.4,85s22-4.4,30.1-12.4s12.4-18.7,12.4-30.1C84.9,33.8,82.3,25.5,77.4,18.4z"/>
</g>
</svg>