<svg aria-labelledby="dootrix-logo-title" role="img" width="100%" viewBox="0 0 1002 146" version="1.1" xmlns="http://www.w3.org/2000/svg" fill="#fff">
        <title id="dootrix-logo-title">Dootrix</title>
        <path d="m0 139.02v-132.83c0-2.007 1.605-3.813 3.611-3.813h48.954c38.722 0 70.421 31.502 70.421 70.025 0 38.926-31.699 70.427-70.421 70.427h-48.954c-2.006 0-3.611-1.806-3.611-3.812zm31.034-25.624h19.26c22.672 0 39.123-17.858 39.123-40.731 0-22.673-16.451-40.531-39.123-40.531h-19.26v81.262zm187.14-113.4c41.62 0 72.888 31.388 72.888 73.309 0 40.236-32.958 72.678-73.733 72.678-42.042 0-75.423-32.02-75.423-72.467 0-20.434 8.239-39.393 23.662-53.929 13.521-12.639 31.902-19.591 52.606-19.591zm-1.267 31.599c-23.029 0-40.142 17.695-40.142 41.5 0 23.172 17.536 41.289 39.93 41.289 21.973 0 39.719-18.117 39.719-40.657 0-24.015-16.901-42.132-39.507-42.132zm170.72-31.599c41.62 0 72.888 31.388 72.888 73.309 0 40.236-32.958 72.678-73.733 72.678-42.043 0-75.423-32.02-75.423-72.467 0-20.434 8.239-39.393 23.662-53.929 13.521-12.639 31.901-19.591 52.606-19.591zm-1.268 31.599c-23.028 0-40.141 17.695-40.141 41.5 0 23.172 17.535 41.289 39.93 41.289 21.972 0 39.719-18.117 39.719-40.657 0-24.015-16.902-42.132-39.508-42.132zm168.21-1.264h34.711c2.637 0 4.775-2.132 4.775-4.761v-18.075c0-2.629-2.138-4.76-4.775-4.76h-105.05c-2.637 0-4.775 2.131-4.775 4.76v18.075c0 2.629 2.138 4.761 4.775 4.761h36.116v108.15c0 2.629 2.138 4.76 4.775 4.76h24.677c2.636 0 4.774-2.131 4.774-4.76v-108.15zm113.06 58.563v49.59c0 2.629-2.138 4.76-4.775 4.76h-24.676c-2.637 0-4.775-2.131-4.775-4.76v-130.99c0-2.629 2.138-4.76 4.775-4.76h40.859c18.592 0 32.113 3.37 41.409 10.533 9.719 7.583 15.212 20.223 15.212 35.601 0 21.276-9.085 35.601-27.254 42.764l26.718 44.401c1.357 2.255 0.623 5.179-1.638 6.532-0.742 0.444-1.591 0.678-2.456 0.678h-29.77c-1.72 0-3.308-0.923-4.155-2.416l-29.474-51.934zm0-19.17h10.986c14.155 0 22.394-7.162 22.394-19.38 0-11.797-8.028-19.592-20.281-19.592h-13.099v38.972zm148.5-66.989c2.637 0 4.774 2.131 4.774 4.76v130.99c0 2.629-2.137 4.76-4.774 4.76h-24.677c-2.637 0-4.774-2.131-4.774-4.76v-130.99c0-2.629 2.137-4.76 4.774-4.76h24.677zm185.53 3.463-20.374 34.472c-0.657 1.112-2.089 1.48-3.199 0.821-0.321-0.19-0.591-0.455-0.789-0.771l-21.547-34.473c-0.457-0.73-1.164-1.923-2.124-3.581h46.028c1.295 0 2.335 1.048 2.335 2.34 0 0.419-0.11 0.831-0.33 1.192zm-45.91 133.04 21.547-34.473c0.685-1.095 2.126-1.427 3.219-0.741 0.316 0.198 0.58 0.469 0.77 0.791l20.374 34.472c0.66 1.112 0.29 2.547-0.82 3.205-0.36 0.214-0.77 0.327-1.186 0.327h-46.26c1.416-2.14 2.201-3.333 2.356-3.581z"></path>
        <path d="m866.54 136.74 41.247-61.676c0.875-1.31 0.879-3.019 9e-3 -4.332l-41.305-62.362c-1.189-1.797-0.7-4.22 1.093-5.412 0.638-0.424 1.388-0.651 2.154-0.651h35.179c1.935 2.496 3.232 4.242 3.891 5.236l38.979 58.851c0.871 1.315 2.131 3.512 3.782 6.592-1.666 2.96-2.936 5.095-3.811 6.403l-38.946 58.235c-0.654 0.978-1.952 2.709-3.895 5.193h-35.14c-2.152 0-3.896-1.748-3.896-3.904 0-0.774 0.229-1.53 0.659-2.173z" fill="#ff562d"></path>
</svg>