<svg xmlns="http://www.w3.org/2000/svg" xmlns:xlink="http://www.w3.org/1999/xlink" version="1.1" width="256" height="256" viewBox="0 0 256 256" xml:space="preserve">
<desc>Created with Fabric.js 1.7.22</desc>
<defs>
</defs>
<g transform="translate(128 128) scale(0.72 0.72)" style="">
	<g style="stroke: none; stroke-width: 0; stroke-dasharray: none; stroke-linecap: butt; stroke-linejoin: miter; stroke-miterlimit: 10; fill: none; fill-rule: nonzero; opacity: 1;" transform="translate(-175.05 -175.05000000000004) scale(3.89 3.89)" >
	<path d="M 66.137 22.474 H 23.855 c -1.104 0 -2 -0.896 -2 -2 s 0.896 -2 2 -2 h 42.282 c 1.104 0 2 0.896 2 2 S 67.241 22.474 66.137 22.474 z" style="stroke: none; stroke-width: 1; stroke-dasharray: none; stroke-linecap: butt; stroke-linejoin: miter; stroke-miterlimit: 10; fill: rgb(0,0,0); fill-rule: nonzero; opacity: 1;" transform=" matrix(1 0 0 1 0 0) " stroke-linecap="round" />
	<path d="M 66.137 31.604 H 23.855 c -1.104 0 -2 -0.896 -2 -2 s 0.896 -2 2 -2 h 42.282 c 1.104 0 2 0.896 2 2 S 67.241 31.604 66.137 31.604 z" style="stroke: none; stroke-width: 1; stroke-dasharray: none; stroke-linecap: butt; stroke-linejoin: miter; stroke-miterlimit: 10; fill: rgb(0,0,0); fill-rule: nonzero; opacity: 1;" transform=" matrix(1 0 0 1 0 0) " stroke-linecap="round" />
	<path d="M 47.415 40.732 H 23.855 c -1.104 0 -2 -0.896 -2 -2 s 0.896 -2 2 -2 h 23.561 c 1.104 0 2 0.896 2 2 S 48.52 40.732 47.415 40.732 z" style="stroke: none; stroke-width: 1; stroke-dasharray: none; stroke-linecap: butt; stroke-linejoin: miter; stroke-miterlimit: 10; fill: rgb(0,0,0); fill-rule: nonzero; opacity: 1;" transform=" matrix(1 0 0 1 0 0) " stroke-linecap="round" />
	<path d="M 67.642 79.191 H 44.996 c -1.104 0 -2 -0.896 -2 -2 s 0.896 -2 2 -2 h 22.646 c 1.104 0 2 0.896 2 2 S 68.746 79.191 67.642 79.191 z" style="stroke: none; stroke-width: 1; stroke-dasharray: none; stroke-linecap: butt; stroke-linejoin: miter; stroke-miterlimit: 10; fill: rgb(0,0,0); fill-rule: nonzero; opacity: 1;" transform=" matrix(1 0 0 1 0 0) " stroke-linecap="round" />
	<path d="M 80.557 79.191 h -5.712 c -1.104 0 -2 -0.896 -2 -2 s 0.896 -2 2 -2 h 5.712 c 1.104 0 2 0.896 2 2 S 81.661 79.191 80.557 79.191 z" style="stroke: none; stroke-width: 1; stroke-dasharray: none; stroke-linecap: butt; stroke-linejoin: miter; stroke-miterlimit: 10; fill: rgb(0,0,0); fill-rule: nonzero; opacity: 1;" transform=" matrix(1 0 0 1 0 0) " stroke-linecap="round" />
	<path d="M 89.168 32.166 l -11.55 -8.31 V 8.851 c 0 -1.104 -0.896 -2 -2 -2 H 53.986 l -7.814 -5.623 c -0.698 -0.502 -1.639 -0.502 -2.336 0 L 36.02 6.851 H 14.373 c -1.104 0 -2 0.896 -2 2 v 15.014 L 0.838 32.164 c -0.046 0.033 -0.081 0.077 -0.123 0.113 c -0.064 0.054 -0.128 0.108 -0.186 0.17 c -0.043 0.047 -0.079 0.099 -0.117 0.15 c -0.035 0.046 -0.075 0.087 -0.106 0.137 c -0.017 0.027 -0.026 0.056 -0.041 0.083 c -0.026 0.046 -0.048 0.092 -0.07 0.14 c -0.047 0.1 -0.084 0.201 -0.113 0.305 c -0.008 0.031 -0.018 0.061 -0.024 0.092 c -0.042 0.183 -0.062 0.368 -0.052 0.553 v 53.242 c 0 1.104 0.896 2 2 2 h 85.987 c 1.104 0 2 -0.896 2 -2 V 33.897 C 90.028 33.24 89.742 32.579 89.168 32.166 z M 84.422 33.679 l -6.804 4.276 v -9.172 L 84.422 33.679 z M 45.004 5.315 l 2.134 1.536 h -4.268 L 45.004 5.315 z M 73.618 10.851 V 40.47 L 44.996 58.46 L 16.373 40.47 V 10.851 H 73.618 z M 12.373 37.956 l -6.798 -4.272 l 6.798 -4.891 V 37.956 z M 4.006 85.148 V 37.422 l 39.925 25.093 c 0.326 0.204 0.695 0.307 1.064 0.307 s 0.739 -0.103 1.064 -0.307 l 39.934 -25.099 v 47.732 H 4.006 z" style="stroke: none; stroke-width: 1; stroke-dasharray: none; stroke-linecap: butt; stroke-linejoin: miter; stroke-miterlimit: 10; fill: rgb(0,0,0); fill-rule: nonzero; opacity: 1;" transform=" matrix(1 0 0 1 0 0) " stroke-linecap="round" />
	<path d="M 66.137 40.732 h -6.022 c -1.104 0 -2 -0.896 -2 -2 s 0.896 -2 2 -2 h 6.022 c 1.104 0 2 0.896 2 2 S 67.241 40.732 66.137 40.732 z" style="stroke: none; stroke-width: 1; stroke-dasharray: none; stroke-linecap: butt; stroke-linejoin: miter; stroke-miterlimit: 10; fill: rgb(0,0,0); fill-rule: nonzero; opacity: 1;" transform=" matrix(1 0 0 1 0 0) " stroke-linecap="round" />
</g>
</g>
</svg>