<?xml version="1.0" encoding="utf-8"?>
<!-- Generator: Adobe Illustrator 23.0.1, SVG Export Plug-In . SVG Version: 6.00 Build 0)  -->
<svg version="1.1" id="Layer_1" xmlns="http://www.w3.org/2000/svg" xmlns:xlink="http://www.w3.org/1999/xlink" x="0px" y="0px"
	 width="676px" height="249.3px" viewBox="0 0 676 249.3" style="enable-background:new 0 0 676 249.3;" xml:space="preserve">
<style type="text/css">
	.st0{fill:#61646D;}
	.st1{fill:#F08C21;}
</style>
<g>
	<path class="st0" d="M100.9,57.2c-12.2,5.4-15.1,6.7-21.2,9.3c-6.8-10-20-15.1-33-9.3C26,66.4,8.6,73.8,8.6,73.8v77.5h23.7V87.4
		c0,0,7.1-3.2,16-7.1c5.7-2.5,11.9,1.3,11.9,7.4c0,10.5,0,63.6,0,63.6h23.7V88c0,0,8.6-3.5,18.6-7.7c5.8-2.4,11.9,1.3,11.9,7.4
		c0,39.8,0,63.6,0,63.6h23.7c0,0,0-46.3,0-67C138.1,61.4,119,49.2,100.9,57.2z"/>
	<g>
		<path class="st0" d="M433.1,102.8c0,26.8-21.7,48.5-48.5,48.5c-26.8,0-48.5-21.7-48.5-48.5c0-26.8,21.7-48.5,48.5-48.5
			C411.4,54.4,433.1,76.1,433.1,102.8z M384.6,78.2c-13.6,0-24.6,11-24.6,24.6c0,13.6,11,24.6,24.6,24.6c13.6,0,24.6-11,24.6-24.6
			C409.3,89.2,398.2,78.2,384.6,78.2z"/>
		<path class="st0" d="M250.1,113.3h-57.9l0.3-21.3h48.9L250.1,113.3z"/>
		<path class="st1" d="M278.6,78.2l13.1,32.5l43.1-104l25,0.1l-58.6,144.5h-18.8l-30-73.1L278.6,78.2z"/>
		<g>
			<path class="st0" d="M543.5,120.8c-4.4,4.1-10.3,6.7-16.8,6.7c-13.6,0-24.6-11-24.6-24.6c0-13.6,11-24.6,24.6-24.6
				c6.7,0,12.7,2.7,17.2,7l23-9.5c-8.7-12.9-23.5-21.3-40.2-21.3c-26.8,0-48.5,21.7-48.5,48.5c0,26.8,21.7,48.5,48.5,48.5
				c16.6,0,31.2-8.4,40-21.1L543.5,120.8z"/>
		</g>
		<polygon class="st0" points="177.1,54.2 177.1,70.1 153.2,70.1 153.2,54.3 		"/>
		<rect x="153.2" y="78.2" class="st0" width="23.8" height="73.2"/>
		<polygon class="st0" points="467.1,54.2 467.1,70.1 443.3,70.1 443.3,54.3 		"/>
		<rect x="443.3" y="78.2" class="st0" width="23.8" height="73.2"/>
	</g>
	<line class="st0" x1="617.6" y1="113.3" x2="621.4" y2="92"/>
	<path class="st0" d="M617.6,127.5c-13.6,0-24.6-11-24.6-24.6c0-13.6,11-24.6,24.6-24.6c9.3,0,18.6,5.7,22.1,13.9l-22.4,0l-3.3,21.3
		h50.8c0.7-3.4,1.2-6.9,1.2-10.5c0-26.8-21.7-48.5-48.5-48.5c-26.8,0-48.5,21.7-48.5,48.5c0,26.8,21.7,48.5,48.5,48.5
		c16.5,0,31.1-8.3,39.8-20.9l-23.2-9.4C629.9,125,624,127.5,617.6,127.5z"/>
	<g>
		<path class="st1" d="M7.3,209.6c0-11.3,7.1-18.3,15-18.3c4,0,6.7,1.5,9.7,4l-0.2-6V176h5.9v50.9h-4.9l-0.5-4.1h-0.2
			c-2.7,2.7-6.4,5-10.5,5C12.9,227.8,7.3,221.2,7.3,209.6z M31.8,218.1v-18.2c-3-2.6-5.6-3.6-8.5-3.6c-5.5,0-10,5.4-10,13.3
			c0,8.3,3.4,13.3,9.5,13.3C26.1,222.8,28.9,221.3,31.8,218.1z"/>
		<path class="st1" d="M46.8,209.6c0-11.3,7.6-18.3,15.6-18.3c8.9,0,13.8,6.4,13.8,16.3c0,1.2-0.1,2.5-0.3,3.3H52.6
			c0.4,7.4,4.9,12.1,11.5,12.1c3.3,0,6.1-1.1,8.6-2.8l2.1,3.9c-3,2-6.7,3.6-11.5,3.6C54.2,227.8,46.8,221,46.8,209.6z M71,206.8
			c0-7-3.1-10.7-8.6-10.7c-4.9,0-9.2,3.9-10,10.7H71z"/>
		<path class="st1" d="M84.8,192.2h4.9l0.5,5h0.2c3-3.3,6.7-5.9,10.8-5.9c5.3,0,8.2,2.5,9.6,6.6c3.6-3.9,7.2-6.6,11.4-6.6
			c7.1,0,10.6,4.7,10.6,13.6v22h-5.9v-21.2c0-6.5-2-9.2-6.5-9.2c-2.7,0-5.5,1.8-8.7,5.3v25.1h-5.9v-21.2c0-6.5-2-9.2-6.5-9.2
			c-2.6,0-5.5,1.8-8.7,5.3v25.1h-5.9V192.2z"/>
		<path class="st1" d="M141.4,209.6c0-11.6,7.6-18.3,16.1-18.3c8.5,0,16.1,6.7,16.1,18.3c0,11.5-7.6,18.2-16.1,18.2
			C149,227.8,141.4,221.1,141.4,209.6z M167.5,209.6c0-8-4-13.4-10-13.4c-6,0-10,5.4-10,13.4s4,13.3,10,13.3
			C163.4,222.9,167.5,217.6,167.5,209.6z"/>
		<path class="st1" d="M180.1,209.6c0-11.6,7.8-18.3,16.7-18.3c4.6,0,7.7,1.9,10.2,4.1l-3,3.9c-2-1.8-4.2-3.1-6.9-3.1
			c-6.3,0-10.9,5.4-10.9,13.4s4.4,13.3,10.7,13.3c3.2,0,6-1.5,8.1-3.5l2.5,3.9c-3.1,2.8-7.1,4.4-11.2,4.4
			C187.1,227.8,180.1,221.1,180.1,209.6z"/>
		<path class="st1" d="M215.2,192.2h4.9l0.5,6.3h0.2c2.4-4.4,6-7.2,9.9-7.2c1.5,0,2.6,0.2,3.7,0.7l-1.1,5.2c-1.2-0.4-2-0.6-3.4-0.6
			c-2.9,0-6.4,2.1-8.8,8v22.3h-5.9V192.2z"/>
		<path class="st1" d="M236.1,217.9c0-7.6,6.5-11.3,21.3-12.9c0-4.5-1.5-8.8-7.2-8.8c-4,0-7.6,1.9-10.3,3.7l-2.3-4
			c3.2-2.1,8.1-4.5,13.6-4.5c8.5,0,12.1,5.6,12.1,14.3v21.3h-4.9l-0.5-4.1h-0.2c-3.3,2.8-7.2,5-11.5,5
			C240.5,227.8,236.1,224.2,236.1,217.9z M257.5,218.4v-9.6c-11.6,1.4-15.6,4.2-15.6,8.7c0,3.9,2.7,5.5,6.1,5.5
			C251.3,223,254.1,221.4,257.5,218.4z"/>
		<path class="st1" d="M271.7,209.6c0-11.6,7.8-18.3,16.7-18.3c4.6,0,7.7,1.9,10.2,4.1l-3,3.9c-2-1.8-4.2-3.1-6.9-3.1
			c-6.3,0-10.9,5.4-10.9,13.4s4.4,13.3,10.7,13.3c3.2,0,6-1.5,8.1-3.5l2.5,3.9c-3.1,2.8-7.1,4.4-11.2,4.4
			C278.7,227.8,271.7,221.1,271.7,209.6z"/>
		<path class="st1" d="M303.8,241.2l1.1-4.7c0.7,0.2,1.8,0.5,2.6,0.5c3.9,0,6.4-3.1,7.8-7.5l0.8-2.6l-13.9-34.8h6.1l7.1,19.2
			c1.1,3,2.3,6.6,3.4,9.8h0.3c1-3.2,2-6.7,2.9-9.8l6.2-19.2h5.8l-13.1,37.6c-2.4,6.9-6,12.1-13,12.1
			C306.2,241.9,304.9,241.6,303.8,241.2z"/>
		<path class="st1" d="M352.3,209.6c0-11.3,7.6-18.3,15.6-18.3c8.9,0,13.8,6.4,13.8,16.3c0,1.2-0.1,2.5-0.3,3.3h-23.4
			c0.4,7.4,4.9,12.1,11.5,12.1c3.3,0,6.1-1.1,8.6-2.8l2.1,3.9c-3,2-6.7,3.6-11.5,3.6C359.7,227.8,352.3,221,352.3,209.6z
			 M376.6,206.8c0-7-3.1-10.7-8.6-10.7c-4.9,0-9.2,3.9-10,10.7H376.6z"/>
		<path class="st1" d="M390.3,192.2h4.9l0.5,5h0.2c3.3-3.3,6.9-5.9,11.6-5.9c7.3,0,10.6,4.7,10.6,13.6v22h-5.9v-21.2
			c0-6.5-2-9.2-6.5-9.2c-3.5,0-6,1.8-9.5,5.3v25.1h-5.9V192.2z"/>
		<path class="st1" d="M427.2,217.9c0-7.6,6.5-11.3,21.3-12.9c0-4.5-1.5-8.8-7.2-8.8c-4,0-7.6,1.9-10.3,3.7l-2.3-4
			c3.2-2.1,8.1-4.5,13.6-4.5c8.5,0,12.1,5.6,12.1,14.3v21.3h-4.9l-0.5-4.1h-0.2c-3.3,2.8-7.2,5-11.5,5
			C431.6,227.8,427.2,224.2,427.2,217.9z M448.5,218.4v-9.6c-11.6,1.4-15.6,4.2-15.6,8.7c0,3.9,2.7,5.5,6.1,5.5
			C442.4,223,445.2,221.4,448.5,218.4z"/>
		<path class="st1" d="M470.8,223.3h-0.2l-0.5,3.6h-4.7V176h5.9V190l-0.2,6.2c3.2-2.7,7-4.8,10.9-4.8c9,0,13.8,7,13.8,17.7
			c0,11.9-7.1,18.8-15,18.8C477.4,227.8,473.8,226.1,470.8,223.3z M489.6,209.1c0-7.7-2.6-12.8-9.1-12.8c-2.9,0-6,1.6-9.3,4.7v18.2
			c3.1,2.6,6.2,3.6,8.4,3.6C485.4,222.8,489.6,217.7,489.6,209.1z"/>
		<path class="st1" d="M504.5,219.9V176h5.9v44.3c0,1.8,0.8,2.5,1.6,2.5c0.3,0,0.6,0,1.3-0.1l0.8,4.5c-0.8,0.3-1.8,0.5-3.4,0.5
			C506.3,227.8,504.5,225,504.5,219.9z"/>
		<path class="st1" d="M520.2,209.6c0-11.3,7.6-18.3,15.6-18.3c8.9,0,13.8,6.4,13.8,16.3c0,1.2-0.1,2.5-0.3,3.3H526
			c0.4,7.4,4.9,12.1,11.5,12.1c3.3,0,6.1-1.1,8.6-2.8l2.1,3.9c-3,2-6.7,3.6-11.5,3.6C527.5,227.8,520.2,221,520.2,209.6z
			 M544.4,206.8c0-7-3.1-10.7-8.6-10.7c-4.9,0-9.2,3.9-10,10.7H544.4z"/>
		<path class="st1" d="M555.7,209.6c0-11.3,7.1-18.3,15-18.3c4,0,6.7,1.5,9.7,4l-0.2-6V176h5.9v50.9h-4.9l-0.5-4.1h-0.2
			c-2.7,2.7-6.4,5-10.5,5C561.3,227.8,555.7,221.2,555.7,209.6z M580.2,218.1v-18.2c-3-2.6-5.6-3.6-8.5-3.6c-5.5,0-10,5.4-10,13.3
			c0,8.3,3.4,13.3,9.5,13.3C574.5,222.8,577.3,221.3,580.2,218.1z"/>
	</g>
</g>
</svg>
