<svg enable-background="new 0 0 177 177.16" viewBox="0 0 177 177.16" xmlns="http://www.w3.org/2000/svg">
        <ellipse cx="88.58" cy="88.58" fill="#fff" rx="87.31" ry="87.31" transform="matrix(.0772 -.997 .997 .0772 -6.5767 170.0584)"/>
        <g fill="#1e71b8">
                <path d="m7.94 79.95c3.8-41.14 38.45-73.36 80.74-73.36 42.28 0 77.01 32.22 80.81 73.36z"/>
                <path d="m88.3 170.52c-20.1 0-39.31-7.48-54.09-21.05-14.69-13.49-23.78-31.82-25.6-51.62l-.32-3.53h161.62l-.46 3.64c-2.53 19.83-12.07 38.13-26.86 51.52-14.99 13.57-34.27 21.04-54.29 21.04zm-72.84-69.73c2.37 16.84 10.5 32.33 23.12 43.92 13.59 12.48 31.25 19.35 49.72 19.35 18.42 0 36.15-6.88 49.95-19.37 12.74-11.53 21.26-27.01 24.24-43.91h-147.03z"/>
                <path d="m14.18 83.05h-6.3v1.06h1.22c.49 0 .76.01.76.01v5.81s-.27.02-.76.02h-1.2v1.05h6.05v-1.05h-1.19c-.49 0-.76-.02-.76-.02v-4.84h.04l5.43 5.91h3.96v-6.9h.76 1.18v-1.06h-6.03v1.06h1.19.77v4.43h-.04z"/>
                <path d="m33.29 83.92c1.96 0 2.86 1.01 2.86 3.11s-.9 3.1-2.86 3.1-2.86-1-2.86-3.1.9-3.11 2.86-3.11m0-1.11c-4.31 0-7.11 1.62-7.11 4.22s2.8 4.21 7.11 4.21 7.11-1.61 7.11-4.21-2.8-4.22-7.11-4.22"/>
                <path d="m62.68 86.1c0-.61.01-1.97.01-1.97s1.71-.02 2.83-.02v5.84s-.27 0-.76 0h-1.22v1.05h7.6v-1.05h-1.17c-.49 0-.76 0-.76 0v-5.84c1.19 0 2.83.02 2.83.02s.01 1.39.01 1.97h1.82v-3.05h-13.02v3.05z"/>
                <path d="m82.32 86.35v-2.26s.27.01.77.01h.82v-1.06h-7.25v1.06h1.21c.49 0 .77.02.77.02v5.84s-.28-.02-.77-.02h-1.19v1.05h7.21v-1.05h-.8c-.49 0-.77 0-.77 0v-2.54h4.31v2.54s-.27.01-.76.01h-.81v1.05h7.21v-1.05h-1.2c-.48 0-.76-.03-.76-.03v-5.82h.76 1.21v-1.06h-7.25v1.06h.83c.49 0 .76.01.76.01v2.23h-4.3z"/>
                <path d="m111.14 82.94h-1.62l.01.63c-1.12-.43-2.76-.76-4.1-.76-2.7 0-5.62.54-5.62 2.52 0 3.45 8.48 2.05 8.48 3.77 0 .69-1.23 1.04-2.25 1.04-2.31 0-4.01-.88-4.27-2.14h-1.82v3.14h1.64l-.01-.8c1.24.55 3.28.91 4.79.91 2.7 0 5.41-.65 5.41-2.57 0-3.42-8.48-2.21-8.48-3.72 0-.8 1.06-1.03 2.19-1.03 1.73 0 3.55.71 3.84 1.97h1.8v-2.96z"/>
                <path d="m168.57 82.94h-1.62l.01.63c-1.12-.43-2.76-.76-4.1-.76-2.7 0-5.62.54-5.62 2.52 0 3.45 8.48 2.05 8.48 3.77 0 .69-1.24 1.04-2.26 1.04-2.31 0-4.01-.88-4.27-2.14h-1.82v3.14h1.64l-.01-.8c1.24.55 3.28.91 4.79.91 2.7 0 5.41-.65 5.41-2.57 0-3.42-8.48-2.21-8.48-3.72 0-.8 1.06-1.03 2.19-1.03 1.73 0 3.55.71 3.84 1.97h1.8v-2.96z"/>
                <path d="m139.56 83.05h-7.64v1.06h1.22.76v5.85s-.28-.01-.76-.01h-1.2v1.05h7.6v-1.05h-1.2c-.49 0-.77 0-.77 0v-5.84h.77 1.22z"/>
                <path d="m154.6 91.01v-3.28h-1.83c0 .62-.02 2.22-.02 2.22s-1.48 0-2.7 0h-2.13v-5.84s.28-.01.77-.01h1.21v-1.05h-7.64v1.05h1.21c.49 0 .76.01.76.01v5.82s-.27.02-.76.02h-1.19v1.05h12.32z"/>
                <path d="m119.78 83.05-3.78 6.9h-1.51v1.05h5.76v-1.05h-2.02l.76-1.48h4l.69 1.47-1.84.01v1.05h7.15v-1.05h-1.54l-.48-.9-3.27-6zm1.17 1.78 1.46 2.58h-2.84z"/>
                <path d="m121.61 122.25h-11.27c-1.84-6.67-13.23-10.41-24.01-10.41-7.1 0-13.72 1.21-13.72 5.46 0 8 53.05 1.59 53.05 19.68 0 10.15-16.91 13.58-33.81 13.58-9.44 0-22.27-1.79-29.98-4.71l.09 4.14h-10.3v-16.63h11.39c1.59 6.66 12.25 11.3 26.71 11.3 6.37 0 14.09-1.84 14.09-5.46 0-9.07-53.04-1.71-53.04-19.93 0-10.47 18.25-13.33 35.16-13.33 8.33 0 18.85 1.63 25.48 4.98v-4.28h10.17v15.61z"/>
        </g>
        <path d="m107.81 55.32h.2v-23.42s-1.39.02-3.87.02h-6.05v-5.58h30.57v5.58h-5.95c-2.49 0-3.87 0-3.87 0v36.46h-20.06l-27.6-31.26h-.2v23.15 2.54h9.92v5.58h-30.67v-5.59h9.95l-.03-2.54v-25.8c0-1.59 0-2.54 0-2.54h-10.02v-5.58h31.97z" fill="#fff"/>
        <path d="m55.86 89.23c-.02-.09-.04-.21-.04-.21-.18-1.3-.96-1.97-2.25-2.2v-.02c1.71-.14 2.96-.66 2.96-1.8 0-1.29-1.63-1.94-4.37-1.94h-9.03v1.05h1.21c.49 0 .76.03.76.03v5.82s-.28 0-.76 0h-1.2v1.05h7.62v-1.05h-1.21c-.49 0-.76.01-.76.01v-2.57h1.61c1.59 0 1.78.17 1.78.89 0 1.4 1.25 2.95 3.12 2.95.46 0 1.74-.15 2.34-.39v-1c-.49 0-1.63-.02-1.78-.62zm-5.18-2.88h-1.88v-2.24h1.41c1.8 0 2.64.2 2.64 1.09 0 .96-.73 1.15-2.17 1.15z" fill="#1e71b8"/>
</svg>