<svg
        id="svg"
        version="1.1"
        xmlns="http://www.w3.org/2000/svg"
        xmlns:xlink="http://www.w3.org/1999/xlink"
        width="400"
        height="72.63427109974424"
        viewBox="0, 0, 400,72.63427109974424"
>
        <g id="svgg">
                <path
                        id="path0"
                        d="M21.292 0.679 C 21.131 0.773,21.000 0.996,21.000 1.175 C 21.000 1.479,20.872 1.500,19.069 1.500 L 17.138 1.500 16.949 2.000 C 16.772 2.469,16.702 2.501,15.838 2.520 C 14.410 2.550,13.924 2.697,13.865 3.117 C 13.822 3.416,13.669 3.502,13.031 3.587 C 11.906 3.737,11.833 3.778,11.833 4.245 C 11.833 4.602,11.757 4.667,11.333 4.667 C 10.891 4.667,10.833 4.723,10.833 5.156 C 10.833 5.586,10.768 5.652,10.292 5.698 C 9.840 5.741,9.741 5.826,9.697 6.208 C 9.653 6.592,9.565 6.667,9.156 6.667 C 8.723 6.667,8.667 6.725,8.667 7.167 C 8.667 7.611,8.611 7.667,8.167 7.667 C 7.731 7.667,7.667 7.726,7.667 8.130 C 7.667 8.492,7.557 8.635,7.167 8.782 C 6.694 8.961,6.667 9.022,6.667 9.891 C 6.667 10.771,6.647 10.813,6.208 10.864 L 5.750 10.917 5.705 14.875 L 5.661 18.833 6.155 18.833 C 6.641 18.833,6.651 18.851,6.700 19.792 C 6.747 20.688,6.778 20.753,7.189 20.801 C 7.520 20.839,7.652 20.968,7.722 21.320 C 7.818 21.796,8.279 22.000,9.260 22.000 C 9.556 22.000,9.657 22.106,9.697 22.458 C 9.748 22.898,9.793 22.919,10.792 22.966 C 11.823 23.015,11.833 23.021,11.833 23.508 C 11.833 23.998,11.838 24.000,12.822 24.000 C 13.777 24.000,13.813 24.016,13.864 24.458 C 13.916 24.913,13.928 24.917,15.410 25.000 C 16.836 25.080,16.907 25.102,17.000 25.500 L 17.098 25.917 19.538 25.963 L 21.979 26.009 22.031 26.463 L 22.083 26.917 24.125 26.963 L 26.167 27.010 26.167 27.505 C 26.167 27.999,26.169 28.000,27.167 28.000 L 28.167 28.000 28.167 28.504 C 28.167 28.931,28.243 29.024,28.667 29.108 C 29.377 29.250,29.410 30.117,28.708 30.197 C 28.354 30.238,28.238 30.350,28.199 30.689 C 28.160 31.025,28.032 31.152,27.657 31.227 C 27.270 31.304,27.167 31.413,27.167 31.746 C 27.167 32.132,27.107 32.167,26.430 32.167 C 25.437 32.167,25.167 32.295,25.167 32.768 L 25.167 33.167 22.604 33.167 L 20.042 33.167 19.942 32.667 C 19.844 32.178,19.819 32.167,18.846 32.167 L 17.850 32.167 17.800 31.208 C 17.753 30.304,17.724 30.247,17.298 30.198 C 16.847 30.146,16.845 30.142,16.798 28.615 L 16.750 27.083 9.057 27.040 C 4.298 27.013,1.199 27.059,0.932 27.161 L 0.500 27.325 0.500 30.746 L 0.500 34.167 1.000 34.167 L 1.500 34.167 1.502 35.292 C 1.505 36.824,1.615 37.167,2.103 37.167 C 2.383 37.167,2.500 37.261,2.500 37.486 C 2.500 38.093,2.694 38.333,3.184 38.333 C 3.609 38.333,3.667 38.393,3.667 38.833 C 3.667 39.278,3.722 39.333,4.167 39.333 C 4.611 39.333,4.667 39.389,4.667 39.833 C 4.667 40.278,4.722 40.333,5.167 40.333 C 5.583 40.333,5.667 40.400,5.667 40.732 C 5.667 41.245,5.925 41.333,7.419 41.333 C 8.632 41.333,8.645 41.338,8.697 41.792 L 8.750 42.250 11.772 42.295 L 14.793 42.341 14.892 42.837 L 14.992 43.333 20.500 43.333 L 26.008 43.333 26.108 42.833 L 26.208 42.333 29.188 42.333 L 32.167 42.333 32.167 41.833 L 32.167 41.333 33.671 41.333 L 35.175 41.333 35.275 40.833 C 35.372 40.346,35.400 40.333,36.354 40.333 C 37.331 40.333,37.333 40.332,37.333 39.833 C 37.333 39.360,37.369 39.333,38.011 39.333 C 38.852 39.333,39.333 39.089,39.333 38.661 C 39.333 38.408,39.447 38.333,39.833 38.333 C 40.274 38.333,40.333 38.276,40.333 37.852 C 40.333 37.425,40.400 37.362,40.917 37.302 C 41.462 37.238,41.500 37.264,41.500 37.704 C 41.500 38.094,41.586 38.192,42.000 38.275 C 42.487 38.372,42.500 38.400,42.500 39.354 C 42.500 40.331,42.501 40.333,43.000 40.333 C 43.480 40.333,43.500 40.363,43.500 41.070 C 43.500 42.239,43.583 42.333,44.601 42.333 C 45.489 42.333,45.500 42.340,45.500 42.833 L 45.500 43.333 47.083 43.333 L 48.667 43.333 48.667 43.816 C 48.667 44.489,48.735 44.500,52.912 44.500 C 56.898 44.500,56.833 44.514,56.833 43.653 C 56.833 43.356,56.973 43.333,58.833 43.333 L 60.833 43.333 60.833 42.833 L 60.833 42.333 61.833 42.333 L 62.833 42.333 62.833 41.833 C 62.833 41.373,62.880 41.333,63.417 41.333 L 64.000 41.333 64.000 42.333 L 64.000 43.333 70.583 43.333 L 77.167 43.333 77.167 44.406 C 77.167 45.451,77.155 45.479,76.708 45.531 L 76.250 45.583 76.203 47.542 C 76.161 49.286,76.124 49.500,75.861 49.500 C 75.252 49.500,75.167 49.830,75.167 52.197 C 75.167 55.005,74.121 54.687,83.167 54.630 L 90.417 54.583 90.466 53.644 C 90.513 52.752,90.540 52.700,91.008 52.607 L 91.500 52.508 91.500 50.004 L 91.500 47.500 92.000 47.500 L 92.500 47.500 92.500 45.417 L 92.500 43.333 93.004 43.333 C 93.431 43.333,93.524 43.257,93.608 42.833 C 93.758 42.086,94.667 42.086,94.667 42.833 L 94.667 43.333 96.167 43.333 C 97.650 43.333,97.667 43.338,97.667 43.744 C 97.667 44.444,98.063 44.510,102.037 44.462 L 105.750 44.417 105.802 43.880 L 105.854 43.343 107.885 43.297 L 109.917 43.250 109.969 42.792 C 110.020 42.349,110.056 42.333,111.011 42.333 C 111.992 42.333,112.000 42.329,112.000 41.848 C 112.000 41.372,112.020 41.362,113.000 41.306 L 114.001 41.250 114.000 42.275 C 114.000 43.265,113.982 43.307,113.500 43.475 L 113.000 43.649 113.000 45.575 C 113.000 47.377,112.979 47.500,112.673 47.500 C 112.126 47.500,112.000 48.045,112.000 50.406 L 112.000 52.667 111.601 52.667 C 111.035 52.667,110.763 53.700,111.163 54.333 C 111.357 54.640,126.115 54.805,126.893 54.509 L 127.333 54.342 127.333 52.421 L 127.333 50.500 127.833 50.500 L 128.333 50.500 128.333 48.521 L 128.333 46.542 128.833 46.442 L 129.333 46.342 129.360 43.796 C 129.375 42.396,129.417 41.494,129.454 41.792 L 129.521 42.333 130.511 42.333 C 131.499 42.333,131.500 42.334,131.500 42.833 L 131.500 43.333 133.000 43.333 L 134.500 43.333 134.500 43.816 C 134.500 44.487,134.578 44.500,138.583 44.500 C 142.589 44.500,142.667 44.487,142.667 43.816 L 142.667 43.333 144.598 43.333 L 146.529 43.333 146.715 42.841 C 146.886 42.386,146.973 42.344,147.825 42.299 C 148.696 42.253,148.753 42.223,148.803 41.792 C 148.847 41.408,148.935 41.333,149.344 41.333 C 149.777 41.333,149.833 41.275,149.833 40.833 C 149.833 40.353,149.863 40.333,150.570 40.333 C 151.553 40.333,151.833 40.205,151.833 39.753 C 151.833 39.468,151.954 39.351,152.322 39.277 C 152.696 39.202,152.826 39.072,152.880 38.715 C 152.919 38.459,152.961 38.719,152.975 39.292 L 153.000 40.333 152.500 40.333 L 152.000 40.333 152.000 41.833 L 152.000 43.333 159.667 43.333 L 167.333 43.333 167.333 42.845 C 167.333 42.468,167.418 42.344,167.702 42.303 C 168.203 42.231,168.297 41.786,168.317 39.386 L 168.333 37.355 168.792 37.303 L 169.250 37.250 169.297 35.219 L 169.343 33.188 169.797 33.136 L 170.250 33.083 170.297 31.052 L 170.343 29.021 170.797 28.969 L 171.250 28.917 171.297 26.905 L 171.343 24.893 171.838 24.965 L 172.333 25.038 172.333 26.950 L 172.333 28.862 172.833 29.051 C 173.322 29.235,173.334 29.267,173.346 30.412 C 173.368 32.506,173.513 33.075,174.042 33.136 L 174.500 33.189 174.500 34.678 L 174.500 36.167 175.000 36.167 L 175.500 36.167 175.500 38.171 L 175.500 40.175 176.007 40.276 C 176.724 40.420,176.717 42.333,176.000 42.500 C 175.705 42.568,175.568 42.725,175.532 43.038 C 175.492 43.377,175.376 43.492,175.032 43.532 C 174.682 43.572,174.572 43.685,174.531 44.042 C 174.487 44.422,174.397 44.500,174.002 44.500 C 173.609 44.500,173.507 44.587,173.417 45.000 L 173.307 45.500 169.737 45.500 L 166.167 45.500 166.167 45.000 L 166.167 44.500 164.753 44.500 C 163.000 44.500,163.144 43.997,163.203 49.917 L 163.250 54.583 171.875 54.626 L 180.500 54.670 180.500 54.174 L 180.500 53.679 182.042 53.631 C 183.570 53.584,183.584 53.580,183.634 53.143 C 183.681 52.743,183.770 52.692,184.599 52.589 C 185.441 52.483,185.521 52.436,185.611 51.987 C 185.691 51.584,185.791 51.500,186.188 51.500 C 186.609 51.500,186.667 51.440,186.667 51.000 C 186.667 50.556,186.722 50.500,187.167 50.500 C 187.611 50.500,187.667 50.444,187.667 50.000 C 187.667 49.556,187.722 49.500,188.167 49.500 C 188.606 49.500,188.667 49.442,188.667 49.021 C 188.667 48.625,188.751 48.525,189.154 48.444 C 189.602 48.355,189.650 48.274,189.755 47.433 C 189.859 46.603,189.910 46.514,190.310 46.468 C 190.645 46.429,190.762 46.312,190.801 45.977 C 190.840 45.642,190.968 45.515,191.343 45.440 C 191.821 45.344,191.833 45.316,191.833 44.337 L 191.833 43.333 192.333 43.333 C 192.778 43.333,192.833 43.278,192.833 42.833 C 192.833 42.389,192.889 42.333,193.333 42.333 C 193.773 42.333,193.833 42.275,193.833 41.854 C 193.833 41.455,193.917 41.358,194.333 41.275 C 194.816 41.178,194.833 41.144,194.833 40.254 C 194.833 39.342,194.838 39.333,195.333 39.333 C 195.779 39.333,195.833 39.278,195.833 38.829 C 195.833 38.404,195.910 38.310,196.327 38.226 C 196.790 38.134,196.828 38.066,196.931 37.156 C 197.032 36.265,197.077 36.181,197.479 36.134 C 197.817 36.095,197.929 35.979,197.969 35.625 C 198.010 35.272,198.111 35.167,198.408 35.167 C 198.840 35.167,198.994 34.807,198.998 33.792 C 199.000 33.209,199.034 33.167,199.500 33.167 C 199.944 33.167,200.000 33.111,200.000 32.667 C 200.000 32.296,200.078 32.167,200.300 32.167 C 200.793 32.167,201.000 31.812,201.000 30.967 C 201.000 30.189,201.014 30.167,201.500 30.167 C 201.940 30.167,202.000 30.109,202.000 29.688 C 202.000 29.288,202.084 29.192,202.500 29.108 C 202.989 29.011,203.000 28.987,203.000 28.004 L 203.000 27.000 203.583 27.000 C 204.120 27.000,204.167 26.960,204.167 26.500 C 204.167 26.084,204.233 26.000,204.566 26.000 C 205.038 26.000,205.167 25.729,205.167 24.736 C 205.167 24.029,205.187 24.000,205.667 24.000 C 206.109 24.000,206.167 23.943,206.167 23.511 C 206.167 23.102,206.241 23.014,206.625 22.969 C 207.059 22.919,207.086 22.866,207.133 21.958 C 207.182 21.020,207.193 21.000,207.675 21.000 C 208.126 21.000,208.167 20.952,208.167 20.417 C 208.167 19.880,208.206 19.833,208.667 19.833 C 209.109 19.833,209.167 19.777,209.167 19.344 C 209.167 18.935,209.241 18.847,209.625 18.803 C 210.058 18.753,210.086 18.697,210.133 17.809 C 210.182 16.872,210.184 16.868,210.758 16.801 L 211.333 16.734 211.333 17.783 C 211.333 18.788,211.316 18.833,210.923 18.833 C 210.310 18.833,210.167 19.288,210.167 21.228 L 210.167 22.978 209.708 23.031 L 209.250 23.083 209.203 25.125 C 209.157 27.147,209.153 27.167,208.763 27.167 C 208.216 27.167,208.167 27.393,208.167 29.919 L 208.167 32.145 207.708 32.197 L 207.250 32.250 207.203 34.292 L 207.156 36.333 206.662 36.333 L 206.167 36.333 206.167 38.313 L 206.167 40.292 205.667 40.392 L 205.167 40.492 205.167 41.912 L 205.167 43.333 215.333 43.333 L 225.500 43.333 225.500 41.333 L 225.500 39.333 225.982 39.333 C 226.615 39.333,226.667 39.156,226.667 36.998 C 226.667 35.260,226.681 35.188,227.035 35.137 C 227.537 35.064,227.630 34.619,227.650 32.219 L 227.667 30.189 228.125 30.136 C 228.485 30.095,228.595 29.985,228.636 29.625 L 228.689 29.167 236.303 29.147 C 244.816 29.125,244.893 29.119,244.969 28.458 L 245.022 28.000 247.515 28.000 L 250.008 28.000 250.106 27.511 L 250.204 27.023 251.686 26.970 L 253.167 26.917 253.169 31.167 C 253.171 35.923,253.200 36.167,253.759 36.167 C 254.073 36.167,254.155 36.268,254.198 36.708 C 254.241 37.156,254.328 37.259,254.697 37.302 C 255.039 37.341,255.170 37.470,255.252 37.843 C 255.341 38.249,255.443 38.333,255.847 38.333 C 256.276 38.333,256.333 38.392,256.333 38.833 C 256.333 39.278,256.389 39.333,256.833 39.333 C 257.278 39.333,257.333 39.389,257.333 39.833 C 257.333 40.275,257.390 40.333,257.822 40.333 C 258.232 40.333,258.320 40.408,258.364 40.792 C 258.414 41.225,258.469 41.253,259.365 41.300 C 260.256 41.346,260.316 41.376,260.365 41.800 C 260.417 42.249,260.421 42.250,261.958 42.298 L 263.500 42.346 263.500 42.840 L 263.500 43.333 266.000 43.333 C 268.498 43.333,268.500 43.334,268.500 43.717 C 268.500 44.492,268.566 44.500,274.603 44.500 C 280.885 44.500,280.833 44.506,280.833 43.816 L 280.833 43.333 283.837 43.333 L 286.842 43.333 286.940 42.840 L 287.039 42.346 288.478 42.298 C 289.910 42.250,289.917 42.248,289.969 41.792 C 290.020 41.349,290.056 41.333,291.011 41.333 C 291.995 41.333,292.000 41.331,292.000 40.841 C 292.000 40.354,292.010 40.349,293.042 40.300 C 294.040 40.252,294.086 40.231,294.136 39.792 C 294.185 39.370,294.247 39.333,294.916 39.333 C 295.652 39.333,296.167 39.025,296.167 38.582 C 296.167 38.458,296.373 38.332,296.625 38.303 C 296.982 38.262,297.095 38.151,297.135 37.802 C 297.175 37.455,297.289 37.342,297.635 37.302 C 298.006 37.259,298.092 37.156,298.136 36.708 C 298.181 36.232,298.247 36.167,298.677 36.167 L 299.167 36.167 299.167 37.739 L 299.167 39.311 298.708 39.364 L 298.250 39.417 298.203 41.375 L 298.156 43.333 307.235 43.333 C 314.315 43.333,316.343 43.287,316.448 43.125 C 316.523 43.010,316.609 41.893,316.641 40.643 L 316.698 38.369 317.182 38.272 L 317.667 38.175 317.667 36.182 L 317.667 34.189 318.125 34.136 L 318.583 34.083 318.667 32.090 C 318.749 30.131,318.757 30.096,319.167 30.000 L 319.583 29.902 319.629 27.451 L 319.676 25.000 320.171 25.000 L 320.667 25.000 320.667 23.021 L 320.667 21.042 321.167 20.942 L 321.667 20.842 321.667 18.348 L 321.667 15.854 322.208 15.802 L 322.750 15.750 322.741 14.581 C 322.726 12.630,323.800 12.833,313.523 12.833 C 305.481 12.833,304.525 12.861,304.434 13.097 C 304.379 13.242,304.333 14.137,304.333 15.086 L 304.333 16.811 303.875 16.864 L 303.417 16.917 303.370 18.940 L 303.323 20.964 302.828 21.036 C 302.364 21.104,302.333 21.074,302.333 20.554 C 302.333 20.052,302.287 20.000,301.844 20.000 C 301.414 20.000,301.348 19.935,301.302 19.458 C 301.259 19.010,301.172 18.908,300.802 18.865 C 300.455 18.825,300.342 18.711,300.302 18.365 C 300.259 17.994,300.156 17.908,299.708 17.864 C 299.232 17.819,299.167 17.753,299.167 17.323 C 299.167 16.890,299.109 16.833,298.667 16.833 C 298.222 16.833,298.167 16.778,298.167 16.333 C 298.167 15.889,298.111 15.833,297.667 15.833 C 297.296 15.833,297.167 15.756,297.167 15.533 C 297.167 14.982,296.808 14.833,295.478 14.833 C 294.196 14.833,294.189 14.831,294.136 14.375 L 294.083 13.917 292.542 13.869 L 291.000 13.821 291.000 13.327 L 291.000 12.833 281.333 12.833 L 271.667 12.833 271.667 13.328 L 271.667 13.823 269.625 13.870 L 267.583 13.917 267.531 14.369 C 267.479 14.817,267.468 14.821,266.031 14.869 C 264.589 14.916,264.583 14.918,264.531 15.375 C 264.482 15.797,264.420 15.833,263.753 15.833 C 262.771 15.833,262.500 15.963,262.500 16.434 C 262.500 16.654,262.444 16.833,262.375 16.833 C 262.306 16.834,262.271 15.032,262.297 12.830 L 262.345 8.827 261.847 8.728 C 261.372 8.633,261.346 8.583,261.299 7.689 C 261.253 6.813,261.220 6.747,260.811 6.699 C 260.475 6.660,260.348 6.532,260.273 6.157 C 260.179 5.685,260.140 5.667,259.254 5.667 C 258.342 5.667,258.333 5.662,258.333 5.167 C 258.333 4.721,258.278 4.667,257.829 4.667 C 257.408 4.667,257.309 4.588,257.230 4.189 C 257.127 3.675,256.340 3.504,254.053 3.501 C 253.235 3.500,253.186 3.476,253.136 3.042 L 253.083 2.583 233.750 2.583 L 214.417 2.583 214.369 4.125 L 214.321 5.667 213.827 5.667 L 213.333 5.667 213.333 7.656 L 213.333 9.645 212.875 9.697 L 212.417 9.750 212.333 11.833 C 212.287 12.979,212.212 13.692,212.166 13.417 L 212.083 12.917 204.542 12.873 L 197.000 12.830 197.000 13.332 C 197.000 13.774,196.943 13.833,196.516 13.833 C 196.050 13.833,196.029 13.868,195.918 14.824 C 195.812 15.738,195.769 15.818,195.360 15.865 C 195.020 15.905,194.905 16.020,194.865 16.359 C 194.831 16.660,194.690 16.833,194.427 16.899 C 194.017 17.002,193.839 17.415,193.836 18.275 C 193.834 18.708,193.745 18.831,193.333 18.975 C 192.859 19.140,192.833 19.196,192.833 20.075 C 192.833 20.992,192.829 21.000,192.333 21.000 L 191.833 21.000 191.833 22.000 L 191.833 23.000 191.333 23.000 C 190.894 23.000,190.833 23.058,190.833 23.479 C 190.833 23.878,190.750 23.975,190.333 24.058 C 189.851 24.155,189.833 24.191,189.833 25.068 C 189.833 25.937,189.813 25.980,189.375 26.031 C 188.948 26.080,188.910 26.149,188.813 27.048 C 188.684 28.252,188.706 28.236,187.208 28.185 L 186.667 28.167 186.667 24.583 L 186.667 21.000 186.170 21.000 L 185.673 21.000 185.628 17.458 L 185.583 13.917 185.125 13.864 C 184.741 13.820,184.667 13.732,184.667 13.322 L 184.667 12.833 179.583 12.833 L 174.500 12.833 174.500 11.750 C 174.500 10.718,174.519 10.667,174.899 10.667 C 175.436 10.667,175.500 10.426,175.500 8.403 C 175.500 6.816,175.527 6.667,175.813 6.667 C 176.404 6.667,176.514 6.284,176.464 4.393 L 176.417 2.583 168.792 2.540 L 161.167 2.497 161.167 3.582 L 161.167 4.667 160.667 4.667 L 160.167 4.667 160.167 6.656 L 160.167 8.645 159.710 8.697 C 159.192 8.757,159.222 8.647,159.077 11.032 C 158.977 12.689,158.944 12.818,158.611 12.865 C 158.141 12.932,158.044 13.423,158.020 15.856 L 158.000 17.796 157.500 17.869 C 156.304 18.044,156.000 17.872,156.000 17.014 C 156.000 16.192,155.791 15.833,155.311 15.833 C 155.120 15.833,155.004 15.678,154.969 15.375 C 154.928 15.019,154.817 14.905,154.471 14.865 C 154.151 14.828,153.978 14.676,153.855 14.324 L 153.684 13.833 152.259 13.833 L 150.833 13.833 150.833 13.331 L 150.833 12.829 144.792 12.873 L 138.750 12.917 138.697 13.375 C 138.646 13.816,138.609 13.833,137.676 13.833 C 136.734 13.833,136.706 13.847,136.608 14.333 C 136.512 14.815,136.476 14.833,135.601 14.833 C 135.032 14.833,134.663 14.911,134.610 15.042 C 134.564 15.156,134.520 14.706,134.513 14.042 L 134.500 12.833 127.496 12.833 L 120.492 12.833 120.329 13.261 C 120.240 13.496,120.167 14.396,120.167 15.261 L 120.167 16.833 119.667 16.833 C 119.222 16.833,119.167 16.778,119.167 16.333 C 119.167 15.889,119.111 15.833,118.667 15.833 C 118.222 15.833,118.167 15.778,118.167 15.333 C 118.167 14.891,118.110 14.833,117.678 14.833 C 117.268 14.833,117.180 14.759,117.136 14.375 C 117.086 13.942,117.031 13.914,116.136 13.867 C 115.239 13.820,115.184 13.792,115.082 13.325 L 114.974 12.833 108.903 12.833 L 102.833 12.833 102.833 13.327 L 102.833 13.820 101.375 13.869 C 99.936 13.916,99.916 13.922,99.866 14.358 C 99.823 14.724,99.717 14.811,99.241 14.866 L 98.667 14.933 98.667 13.883 L 98.667 12.833 84.417 12.833 L 70.167 12.833 70.167 13.322 C 70.167 13.732,70.092 13.820,69.709 13.864 C 69.128 13.931,69.046 14.286,69.020 16.854 L 69.000 18.792 68.500 18.892 L 68.000 18.992 68.000 20.985 L 68.000 22.978 67.542 23.031 L 67.083 23.083 67.037 25.114 L 66.990 27.145 66.537 27.198 C 66.086 27.250,66.083 27.259,66.035 28.708 L 65.987 30.167 65.494 30.167 C 65.061 30.167,65.000 30.226,65.000 30.646 C 65.000 31.045,64.916 31.142,64.500 31.225 C 64.107 31.304,64.000 31.413,64.000 31.735 C 64.000 32.058,63.903 32.156,63.542 32.197 C 63.182 32.239,63.072 32.348,63.031 32.708 L 62.978 33.167 60.917 33.167 L 58.855 33.167 58.803 32.708 C 58.761 32.348,58.652 32.239,58.292 32.197 C 57.850 32.146,57.833 32.110,57.833 31.167 C 57.833 30.224,57.850 30.187,58.292 30.136 L 58.750 30.083 58.797 28.042 L 58.844 26.000 59.333 26.000 L 59.823 26.000 59.870 23.966 C 59.916 21.949,59.920 21.930,60.333 21.833 L 60.750 21.735 60.796 19.284 L 60.842 16.833 61.338 16.833 L 61.833 16.833 61.833 14.833 L 61.833 12.833 54.667 12.833 L 47.500 12.833 47.500 9.750 L 47.500 6.667 47.008 6.667 C 46.527 6.667,46.516 6.647,46.467 5.708 C 46.419 4.801,46.392 4.747,45.958 4.697 C 45.597 4.656,45.500 4.558,45.500 4.234 C 45.500 3.778,45.424 3.737,44.302 3.587 C 43.608 3.494,43.515 3.432,43.469 3.033 C 43.420 2.611,43.359 2.580,42.478 2.534 C 41.586 2.487,41.534 2.460,41.440 1.992 L 41.342 1.500 39.349 1.500 L 37.355 1.500 37.303 1.042 L 37.250 0.583 29.417 0.546 C 24.301 0.521,21.482 0.568,21.292 0.679 M307.500 3.082 C 307.500 3.616,307.458 3.667,307.018 3.667 C 306.388 3.667,306.333 3.848,306.333 5.930 C 306.333 7.651,306.330 7.667,305.934 7.667 C 305.397 7.667,305.333 7.908,305.333 9.932 L 305.333 11.669 314.542 11.626 L 323.750 11.583 323.797 9.642 C 323.843 7.736,323.851 7.698,324.253 7.598 C 324.795 7.461,324.855 7.138,324.798 4.667 L 324.750 2.583 316.125 2.540 L 307.500 2.497 307.500 3.082 M389.542 2.608 C 389.427 2.655,389.333 2.876,389.333 3.097 C 389.333 3.471,389.270 3.501,388.458 3.510 C 386.804 3.528,386.257 3.697,386.197 4.210 L 386.145 4.667 384.656 4.667 L 383.167 4.667 383.167 5.160 L 383.167 5.654 381.625 5.702 L 380.083 5.750 380.031 6.208 L 379.978 6.667 378.489 6.667 L 377.000 6.667 377.000 7.167 L 377.000 7.667 375.525 7.667 L 374.049 7.667 373.942 9.042 C 373.883 9.798,373.835 10.730,373.834 11.114 C 373.833 11.750,373.793 11.816,373.375 11.864 C 373.016 11.905,372.905 12.015,372.864 12.371 L 372.812 12.826 369.864 12.871 L 366.917 12.917 366.824 14.583 C 366.773 15.500,366.717 16.156,366.699 16.042 C 366.681 15.927,366.442 15.833,366.167 15.833 C 365.722 15.833,365.667 15.778,365.667 15.333 C 365.667 14.891,365.610 14.833,365.178 14.833 C 364.768 14.833,364.680 14.759,364.636 14.375 C 364.584 13.918,364.578 13.916,363.135 13.869 C 361.698 13.821,361.687 13.817,361.635 13.369 L 361.583 12.917 354.458 12.873 L 347.333 12.830 347.333 13.332 L 347.333 13.833 345.833 13.833 L 344.333 13.833 344.333 14.333 L 344.333 14.833 342.925 14.833 C 341.759 14.833,341.487 14.884,341.347 15.125 C 341.218 15.345,341.175 15.151,341.169 14.333 C 341.165 13.737,341.102 13.156,341.028 13.040 C 340.923 12.875,339.087 12.839,332.406 12.873 L 323.917 12.917 323.870 14.864 L 323.823 16.812 323.370 16.864 L 322.917 16.917 322.870 18.958 L 322.823 21.000 322.351 21.000 C 321.791 21.000,321.671 21.595,321.668 24.375 C 321.667 25.977,321.661 26.000,321.268 26.000 C 320.728 26.000,320.667 26.238,320.667 28.336 L 320.667 30.145 320.208 30.197 L 319.750 30.250 319.703 32.199 C 319.659 34.046,319.637 34.154,319.286 34.263 C 318.708 34.443,318.672 34.606,318.669 37.042 L 318.667 39.333 318.167 39.333 L 317.667 39.333 317.667 41.333 L 317.667 43.333 326.333 43.333 L 335.000 43.333 335.000 42.833 C 335.000 42.389,335.056 42.333,335.500 42.333 L 336.000 42.333 336.000 40.333 C 336.000 38.357,336.005 38.333,336.383 38.333 C 337.069 38.333,337.167 38.049,337.167 36.062 C 337.167 34.258,337.180 34.188,337.535 34.137 C 338.037 34.064,338.130 33.619,338.150 31.219 L 338.167 29.189 338.625 29.136 C 339.064 29.086,339.085 29.040,339.133 28.042 C 339.179 27.074,339.210 27.000,339.573 27.000 C 340.038 27.000,340.167 26.726,340.167 25.736 C 340.167 25.029,340.187 25.000,340.667 25.000 C 341.111 25.000,341.167 24.944,341.167 24.500 L 341.167 24.000 342.167 24.000 L 343.167 24.000 343.167 23.500 L 343.167 23.000 345.250 23.000 L 347.333 23.000 347.333 23.500 C 347.333 23.942,347.390 24.000,347.822 24.000 C 348.232 24.000,348.320 24.074,348.364 24.458 C 348.405 24.818,348.515 24.928,348.875 24.969 C 349.577 25.050,349.543 25.916,348.833 26.058 L 348.333 26.158 348.333 28.151 L 348.333 30.145 347.875 30.197 L 347.417 30.250 347.371 32.688 L 347.325 35.127 346.829 35.226 L 346.333 35.325 346.333 37.329 L 346.333 39.333 345.833 39.333 L 345.333 39.333 345.333 41.333 L 345.333 43.333 354.500 43.333 L 363.667 43.333 363.667 41.344 L 363.667 39.355 364.125 39.303 L 364.583 39.250 364.630 37.219 L 364.677 35.188 365.130 35.136 L 365.583 35.083 365.629 32.625 C 365.672 30.341,365.698 30.167,365.991 30.167 C 366.800 30.167,366.833 30.080,366.833 27.982 C 366.833 26.003,366.834 26.000,367.232 26.000 C 367.745 26.000,367.833 25.742,367.833 24.236 L 367.833 23.000 369.333 23.000 L 370.833 23.000 370.833 23.989 C 370.833 24.944,370.818 24.980,370.375 25.031 L 369.917 25.083 369.870 27.125 L 369.823 29.167 369.328 29.167 L 368.833 29.167 368.833 32.153 L 368.833 35.140 368.333 35.250 L 367.833 35.360 367.833 36.767 L 367.833 38.175 368.327 38.274 L 368.821 38.373 368.869 39.811 C 368.916 41.243,368.919 41.250,369.375 41.303 C 369.759 41.347,369.833 41.435,369.833 41.844 C 369.833 42.331,369.838 42.333,370.833 42.333 L 371.833 42.333 371.833 42.833 L 371.833 43.333 373.406 43.333 L 374.978 43.333 375.031 43.791 C 375.105 44.440,375.278 44.458,381.861 44.480 C 388.218 44.502,388.167 44.507,388.167 43.816 L 388.167 43.333 390.750 43.333 L 393.333 43.333 393.333 42.354 C 393.333 41.400,393.346 41.372,393.833 41.275 L 394.333 41.175 394.333 37.671 L 394.333 34.167 390.750 34.167 C 387.308 34.167,387.167 34.154,387.167 33.842 C 387.167 33.663,387.035 33.440,386.875 33.347 C 386.602 33.188,386.602 33.176,386.870 33.172 C 387.122 33.167,387.162 32.924,387.203 31.132 C 387.250 29.116,387.254 29.097,387.667 29.000 L 388.083 28.902 388.129 26.461 L 388.175 24.020 388.713 23.969 C 389.158 23.926,389.259 23.839,389.302 23.461 L 389.355 23.006 393.386 22.961 L 397.417 22.917 397.469 22.458 C 397.504 22.155,397.620 22.000,397.811 22.000 C 398.395 22.000,398.500 21.651,398.500 19.717 C 398.500 18.014,398.529 17.833,398.800 17.833 C 399.416 17.833,399.500 17.508,399.500 15.133 L 399.500 12.833 395.417 12.833 L 391.333 12.833 391.333 11.750 L 391.333 10.667 391.833 10.667 L 392.333 10.667 392.333 8.703 L 392.333 6.740 392.839 6.549 L 393.344 6.358 393.297 4.471 L 393.250 2.583 391.500 2.552 C 390.537 2.535,389.656 2.560,389.542 2.608 M28.197 10.125 C 28.247 10.558,28.303 10.586,29.189 10.633 C 30.081 10.680,30.133 10.707,30.227 11.174 C 30.304 11.560,30.414 11.667,30.735 11.667 C 31.076 11.667,31.154 11.758,31.198 12.208 C 31.241 12.655,31.328 12.759,31.694 12.801 C 32.112 12.850,32.141 12.911,32.194 13.843 L 32.250 14.834 30.708 14.834 C 29.335 14.833,29.167 14.801,29.167 14.533 C 29.167 13.914,28.845 13.833,26.383 13.833 L 24.000 13.833 24.000 13.333 L 24.000 12.833 23.000 12.833 L 22.000 12.833 22.000 12.250 C 22.000 11.713,22.040 11.667,22.500 11.667 C 22.944 11.667,23.000 11.611,23.000 11.167 L 23.000 10.667 24.000 10.667 L 25.000 10.667 25.000 10.167 L 25.000 9.667 26.572 9.667 L 28.145 9.667 28.197 10.125 M241.000 13.254 C 241.000 13.587,241.103 13.696,241.491 13.773 C 241.866 13.848,241.994 13.975,242.032 14.311 C 242.072 14.650,242.187 14.762,242.542 14.803 C 243.260 14.885,243.222 15.833,242.500 15.833 C 242.056 15.833,242.000 15.889,242.000 16.333 C 242.000 16.778,241.944 16.833,241.500 16.833 C 241.057 16.833,241.000 16.890,241.000 17.325 C 241.000 17.813,240.990 17.818,239.958 17.867 C 238.960 17.915,238.914 17.936,238.864 18.375 L 238.811 18.833 234.739 18.833 L 230.667 18.833 230.667 17.833 L 230.667 16.833 231.167 16.833 L 231.667 16.833 231.667 14.833 L 231.667 12.833 236.333 12.833 L 241.000 12.833 241.000 13.254 M45.532 16.916 L 45.481 19.000 45.070 19.000 C 44.746 19.000,44.637 19.107,44.558 19.500 C 44.410 20.244,43.500 20.248,43.500 19.505 C 43.500 19.086,43.417 18.988,42.958 18.870 C 42.594 18.776,42.400 18.616,42.366 18.382 C 42.309 17.997,41.902 17.839,40.958 17.836 C 40.411 17.834,40.333 17.784,40.333 17.434 C 40.333 16.922,40.075 16.833,38.581 16.833 C 37.368 16.833,37.355 16.829,37.303 16.375 L 37.250 15.917 35.208 15.870 L 33.167 15.823 33.167 15.328 L 33.167 14.833 39.375 14.833 L 45.583 14.833 45.532 16.916 M281.864 22.458 C 281.914 22.890,281.970 22.919,282.849 22.966 L 283.782 23.015 283.932 23.966 C 284.060 24.770,284.141 24.925,284.458 24.970 C 284.824 25.022,284.833 25.074,284.833 27.084 L 284.833 29.145 284.375 29.197 C 283.941 29.247,283.914 29.301,283.867 30.208 C 283.818 31.147,283.807 31.167,283.325 31.167 C 282.890 31.167,282.833 31.224,282.833 31.667 C 282.833 32.111,282.778 32.167,282.333 32.167 C 281.891 32.167,281.833 32.223,281.833 32.658 C 281.833 33.140,281.814 33.151,280.875 33.200 C 279.968 33.247,279.914 33.274,279.864 33.708 L 279.811 34.167 278.391 34.167 L 276.971 34.167 276.782 34.667 C 276.532 35.331,275.667 35.409,275.667 34.768 C 275.667 34.255,275.408 34.167,273.914 34.167 C 272.701 34.167,272.688 34.162,272.636 33.708 C 272.596 33.356,272.483 33.238,272.151 33.200 C 271.763 33.155,271.703 33.052,271.567 32.200 C 271.440 31.397,271.359 31.242,271.042 31.197 C 270.446 31.112,270.468 29.167,271.066 29.167 C 271.547 29.167,271.667 28.898,271.667 27.820 C 271.667 27.116,271.713 27.000,271.994 27.000 C 272.422 27.000,272.667 26.519,272.667 25.678 C 272.667 25.036,272.693 25.000,273.167 25.000 C 273.611 25.000,273.667 24.944,273.667 24.500 C 273.667 24.014,273.689 24.000,274.467 24.000 C 275.308 24.000,275.667 23.793,275.667 23.308 C 275.667 23.070,275.842 23.007,276.625 22.967 C 277.532 22.919,277.586 22.892,277.636 22.458 L 277.689 22.000 279.750 22.000 L 281.811 22.000 281.864 22.458 M104.864 23.458 C 104.905 23.818,105.015 23.928,105.375 23.969 L 105.833 24.022 105.833 26.594 L 105.833 29.167 105.333 29.167 L 104.833 29.167 104.833 30.167 L 104.833 31.167 104.333 31.167 C 103.889 31.167,103.833 31.222,103.833 31.667 C 103.833 32.111,103.778 32.167,103.333 32.167 C 102.891 32.167,102.833 32.223,102.833 32.658 C 102.833 33.140,102.814 33.151,101.875 33.200 C 100.968 33.247,100.914 33.274,100.864 33.708 C 100.813 34.155,100.784 34.167,99.750 34.167 C 98.716 34.167,98.687 34.155,98.636 33.708 C 98.586 33.275,98.532 33.247,97.633 33.200 L 96.683 33.151 96.633 32.200 C 96.586 31.302,96.558 31.247,96.125 31.197 C 95.683 31.146,95.667 31.110,95.667 30.167 C 95.667 29.224,95.683 29.187,96.125 29.136 L 96.583 29.083 96.631 27.542 L 96.679 26.000 97.173 26.000 C 97.610 26.000,97.667 25.943,97.667 25.500 C 97.667 25.056,97.722 25.000,98.167 25.000 C 98.611 25.000,98.667 24.944,98.667 24.500 C 98.667 24.056,98.722 24.000,99.167 24.000 C 99.611 24.000,99.667 23.944,99.667 23.500 L 99.667 23.000 102.239 23.000 L 104.811 23.000 104.864 23.458 M140.667 23.300 C 140.667 23.680,140.982 24.000,141.356 24.000 C 141.547 24.000,141.662 24.155,141.697 24.458 C 141.739 24.818,141.848 24.928,142.208 24.969 C 142.952 25.055,142.915 26.919,142.167 27.083 L 141.667 27.193 141.667 28.680 L 141.667 30.167 141.167 30.167 C 140.722 30.167,140.667 30.222,140.667 30.667 C 140.667 31.037,140.589 31.167,140.367 31.167 C 139.990 31.167,139.667 31.481,139.667 31.846 C 139.667 32.023,139.483 32.162,139.167 32.225 C 138.770 32.304,138.667 32.412,138.667 32.746 C 138.667 33.102,138.590 33.167,138.167 33.167 C 137.722 33.167,137.667 33.222,137.667 33.667 L 137.667 34.167 136.583 34.167 C 135.618 34.167,135.500 34.131,135.500 33.839 C 135.500 33.413,135.020 33.167,134.189 33.167 C 133.585 33.167,133.517 33.123,133.469 32.708 C 133.428 32.348,133.318 32.239,132.958 32.197 L 132.500 32.145 132.500 30.072 L 132.500 28.000 132.899 28.000 C 133.370 28.000,133.500 27.729,133.500 26.747 C 133.500 26.080,133.537 26.018,133.958 25.969 C 134.313 25.929,134.428 25.817,134.468 25.477 C 134.506 25.142,134.634 25.015,135.009 24.940 C 135.393 24.863,135.500 24.752,135.500 24.432 C 135.500 24.109,135.597 24.011,135.958 23.969 C 136.318 23.928,136.428 23.818,136.469 23.458 L 136.522 23.000 138.594 23.000 C 140.479 23.000,140.667 23.027,140.667 23.300 " stroke="none" fill="#fcfcfc" fill-rule="evenodd"
                >
                </path>
                <path
                        id="path1"
                        d="M204.278 45.611 C 204.217 45.672,204.167 46.302,204.167 47.010 C 204.167 48.554,204.086 48.500,206.394 48.500 L 208.094 48.500 208.282 49.000 L 208.471 49.500 210.402 49.500 L 212.333 49.500 212.333 50.000 L 212.333 50.500 214.313 50.500 L 216.292 50.500 216.392 51.000 L 216.492 51.500 218.496 51.500 L 220.500 51.500 220.500 51.981 C 220.500 52.589,220.750 52.661,222.875 52.664 C 224.171 52.666,224.500 52.715,224.500 52.905 C 224.500 53.513,224.972 53.667,226.845 53.667 C 228.655 53.667,228.667 53.669,228.667 54.066 C 228.667 54.606,228.905 54.667,231.014 54.667 L 232.833 54.667 232.833 55.167 L 232.833 55.667 234.822 55.667 L 236.811 55.667 236.864 56.125 L 236.917 56.583 238.958 56.630 L 241.000 56.677 241.000 57.172 L 241.000 57.667 242.989 57.667 L 244.978 57.667 245.031 58.125 L 245.083 58.583 247.125 58.630 L 249.167 58.677 249.167 59.172 L 249.167 59.667 251.167 59.667 L 253.167 59.667 253.167 60.149 C 253.167 60.781,253.344 60.833,255.503 60.833 L 257.311 60.833 257.364 61.292 L 257.417 61.750 259.355 61.797 L 261.294 61.844 261.393 62.338 L 261.492 62.833 263.485 62.833 L 265.478 62.833 265.531 63.292 L 265.583 63.750 267.522 63.797 L 269.460 63.844 269.559 64.338 L 269.658 64.833 271.662 64.833 L 273.667 64.833 273.667 65.333 L 273.667 65.833 275.239 65.833 L 276.811 65.833 276.864 66.292 L 276.917 66.750 278.855 66.797 L 280.794 66.844 280.893 67.338 L 280.992 67.833 282.985 67.833 L 284.978 67.833 285.031 68.291 C 285.095 68.849,285.467 68.952,287.524 68.980 C 288.892 68.999,288.969 69.020,289.063 69.394 C 289.182 69.868,289.756 69.995,291.792 69.998 C 293.129 70.000,293.167 70.011,293.167 70.397 C 293.167 70.911,293.496 70.995,295.521 70.998 L 297.125 71.000 297.226 71.504 L 297.327 72.008 300.288 71.962 L 303.250 71.917 303.303 71.458 L 303.355 71.000 304.844 71.000 L 306.333 71.000 306.333 70.500 L 306.333 70.000 308.042 69.998 C 310.167 69.995,310.500 69.914,310.500 69.404 C 310.500 69.027,310.553 69.011,311.958 68.965 L 313.417 68.917 313.469 68.380 L 313.520 67.843 315.552 67.797 L 317.583 67.750 317.636 67.297 L 317.688 66.844 319.636 66.797 L 321.583 66.750 321.635 66.298 C 321.688 65.847,321.691 65.845,323.219 65.798 L 324.750 65.750 324.803 65.292 L 324.855 64.833 326.581 64.833 C 328.588 64.833,328.833 64.768,328.833 64.238 C 328.833 63.858,328.880 63.844,330.375 63.798 L 331.917 63.750 331.969 63.292 L 332.022 62.833 333.584 62.833 C 335.374 62.833,336.000 62.662,336.000 62.171 C 336.000 61.859,336.105 61.833,337.383 61.833 C 338.811 61.833,339.167 61.694,339.167 61.133 C 339.167 60.867,339.341 60.831,340.708 60.817 C 342.706 60.795,343.069 60.692,343.135 60.125 C 343.187 59.682,343.197 59.679,344.719 59.631 C 346.247 59.583,346.250 59.583,346.302 59.130 L 346.354 58.677 348.302 58.630 L 350.250 58.583 350.302 58.131 C 350.354 57.680,350.358 57.679,351.885 57.631 C 353.414 57.583,353.417 57.583,353.469 57.130 L 353.521 56.677 355.469 56.630 L 357.417 56.583 357.469 56.131 C 357.521 55.680,357.524 55.679,359.052 55.631 L 360.583 55.583 360.636 55.125 L 360.689 54.667 362.414 54.667 C 364.425 54.667,364.667 54.602,364.667 54.066 C 364.667 53.678,364.706 53.667,365.986 53.667 C 367.578 53.667,367.833 53.584,367.833 53.066 C 367.833 52.670,367.849 52.667,369.570 52.667 C 371.648 52.667,371.833 52.611,371.833 51.988 L 371.833 51.513 373.375 51.465 C 374.915 51.417,374.917 51.416,374.969 50.964 L 375.021 50.510 376.969 50.464 L 378.917 50.417 378.969 49.964 C 379.021 49.513,379.024 49.512,380.552 49.464 C 382.081 49.417,382.083 49.416,382.136 48.964 L 382.188 48.510 384.136 48.464 L 386.083 48.417 386.131 46.958 L 386.180 45.500 295.284 45.500 C 245.292 45.500,204.339 45.550,204.278 45.611 " stroke="none" fill="#cc142c" fill-rule="evenodd"
                >
                </path>
                <path id="path2" d="" stroke="none" fill="#e4c0100" fill-rule="evenodd">
                </path>
                <path id="path3" d="" stroke="none" fill="#e4c0100" fill-rule="evenodd">
                </path>
                <path id="path4" d="" stroke="none" fill="#e4c0100" fill-rule="evenodd">
                </path>
        </g>
</svg>