<svg xmlns="http://www.w3.org/2000/svg" width="497.7" height="497.7" viewBox="0 0 497.7 497.7">
        <path d="M18,228.6q-7.5,9.3-13.8,18.6A234.3,234.3,0,0,1,46,129.2q-7.9,20.9-14.7,43.2A539.7,539.7,0,0,0,18,228.6ZM6.5,300.4l1.2-3.1c1.3-3.7,2.3-6.2,2.3-6.2h0l.6-1.5c.7-13.5,2.1-27.5,4.2-41.8-4,5.7-7.8,11.2-11.2,16.6a228,228,0,0,0,2.9,36Zm23.3-86.3A615.2,615.2,0,0,1,101,144.2c.7-.8,1.3-1.6,2-2.3,38-46.1,79.5-85.2,117.2-111.7a233.8,233.8,0,0,0-154,74.1,526,526,0,0,0-26.4,70.6c-3.9,13.1-7.2,26.2-10,39.2Zm-8.4,51.6c12.8-26.4,29.8-54.4,49.8-82.5A519.6,519.6,0,0,0,26.1,233c-2,11-3.6,22-4.7,32.7Zm272.1,225c-93.2,23-187.3-13.5-242.1-85.3-15.9,2.9-28.6.5-37.6-7C-4.8,383-4.6,348.1,14.3,300c17.7-45.4,50.1-97.7,91.3-148,4.7-4,9.6-8,14.5-11.9,58.9-47,120.5-80.9,169-92.9a142.4,142.4,0,0,1,26-4.2l8.6,3.2h0a158.3,158.3,0,0,1,18.8,8.4c2-18.6-1.4-32.4-10-39.6s-19.9-7.9-35.7-4c-13.2,3.2-28.1,9.8-44.2,19.2a231.7,231.7,0,0,1,42.2,6.6q-3.9.8-7.8,1.8C243.5,49.3,190,77,137.1,115.8c14.2-15.1,28.5-29.2,42.8-42,19.5-17.6,38.8-32.6,56.8-44.2h.2C258,15.9,277.7,6.5,294.7,2.4,313.4-2.2,328-.2,338.1,8.2S354,35.3,350.9,58.8c6,3.3,11.9,7,17.6,10.9h0l3.8,2.7c-7,2-14.3,4.4-21.8,7-4.8,1.8-39.8,15.3-52.8,21a934.8,934.8,0,0,0-124.3,67.8C119.5,202.9,70.6,241.8,33,279.1c-3.8,7.9-7.2,15.7-10.2,23.2,38.6-42,93.1-86.6,155.4-126.7,70.9-45.7,145.1-80.7,203.3-96.4a233.3,233.3,0,0,1,83.1,128.3c31,125.4-45.6,252.2-171.1,283.2Zm-248-93.3a231.7,231.7,0,0,1-32.1-66.6c-7.7,29.5-5.7,51.1,6,60.9,6.2,5.1,15,6.9,26.2,5.7Zm206.8-12.7-41-112.9H193c-5.5,0-9.2,2.5-11.2,7.6L144.4,384.7H169l7.2-23.3h44l7.6,23.3Zm92.9-34.1a32,32,0,0,0-3.6-15.1,28.2,28.2,0,0,0-10.1-10.2l-9.2-3.9-7.1-1.8c-2.9-.8-6.4-1.8-10.3-3.1a57.7,57.7,0,0,1-8.2-2c-12.7-2.9-19-7.2-19-13.1a11.9,11.9,0,0,1,4.9-10.2q4.3-3.6,14.1-3.6c6.8,0,12.2,1.4,16.1,4.2a16.7,16.7,0,0,1,4.6,5.6,11.1,11.1,0,0,0,10.8,6.9h13.1c-.4-10.9-4.3-19.8-11.8-26.6s-17.5-9.2-30.8-9.1-25.1,2.9-32.5,8.8-11.1,14.6-11.1,25.3c0,6.1,1,11.1,3.2,15.1a20.1,20.1,0,0,0,9.2,10.5c3.7,2.6,11.2,5.1,22.3,7.5l2.6.7.7.3c19.7,4.4,29.5,10.1,29.5,17.1,0,4.5-1.7,8.1-5.2,10.5S308.7,368,302,368s-13.7-1.6-18-4.6-6.7-7.3-7.6-13.8h-23c.7,12.5,5.1,21.9,13.1,28.2s18.6,9.5,33.5,9.5,25.6-3,33.5-9.2,11.8-15.7,11.8-27.5Zm90.3-78.8h-78a11.7,11.7,0,0,0-11.8,11.7h0v8.2h33.4v92.9h23.3V291.8h33.2Zm-253,70.6H214l-15.8-47.9Z" transform="translate(15 0)" fill="#0064a7"></path>
</svg>