<?xml version="1.0" encoding="utf-8"?>
<svg viewBox="0 0 500 500" xmlns="http://www.w3.org/2000/svg" xmlns:bx="https://boxy-svg.com">
  <g transform="matrix(1.632381, 0, 0, 1.626702, -158.238098, -156.912155)" bx:origin="0.010204 0.010204">
    <polyline style="stroke: rgb(0, 0, 0); fill: none; stroke-width: 5px;" points="100.116 99.534 100 400 400 400 400 100"/>
    <line style="fill: rgb(216, 216, 216); stroke: rgb(0, 0, 0); stroke-width: 5px;" x1="100.116" y1="250" x2="400" y2="249.942"/>
    <line style="fill: rgb(216, 216, 216); stroke: rgb(0, 0, 0); stroke-width: 5px;" x1="100.175" y1="100.757" x2="400" y2="400"/>
    <ellipse style="stroke: rgb(0, 0, 0); fill: none; stroke-width: 5px;" cx="250" cy="250.233" rx="75" ry="75.233"/>
    <ellipse style="fill: none; stroke-width: 5px;" cx="250" cy="250.757" rx="150" ry="150"/>
    <path d="M 400.175 249.534 C 400.175 290.779 383.25 328.59 356.241 355.6 C 329.231 382.609 291.42 399.534 250.175 399.534 C 208.93 399.534 171.119 382.609 144.109 355.6 C 117.1 328.59 100.175 290.779 100.175 249.534 C 100.175 208.289 117.1 170.478 144.109 143.468 C 171.119 116.459 208.93 99.534 250.175 99.534 C 286.514 99.534 320.189 112.672 346.158 134.27 L 342.876 137.915 C 317.698 116.929 285.595 104.452 250.175 104.452 C 209.935 104.452 173.976 120.556 147.587 146.946 C 121.197 173.335 105.093 209.294 105.093 249.534 C 105.093 289.774 121.197 325.733 147.587 352.122 C 173.976 378.512 209.935 394.616 250.175 394.616 C 290.415 394.616 326.374 378.512 352.763 352.122 C 379.153 325.733 395.257 289.774 395.257 249.534 C 395.257 248.809 395.252 248.086 395.241 247.364 C 397.169 247.222 399.885 247.037 400.153 246.984 C 400.168 247.832 400.175 248.682 400.175 249.534 Z M 394.783 210.097 C 393.149 204.161 391.188 198.342 388.999 192.754 C 393.597 203.981 396.884 215.883 398.657 228.239 C 397.735 222.113 396.4 215.977 394.783 210.097 Z" style=""/>
  </g>
  <rect x="491.2" y="5" width="7" height="5" style="stroke: rgb(0, 0, 0);"/>
</svg>